#!OML:ASF H:\MichaelJackson\Top Level 1\Subject 1\Session 1\male.ASF
:FULLY-SPECIFIED
:DEGREES
303
root 5.25915 16.5006 12.3747 -15.8837 10.6368 3.8391
lowerback 15.9487 0.646487 -5.03954
upperback 5.27826 0.00247496 -2.32069
thorax -3.31505 0.0106189 0.40454
lowerneck -8.12852 -2.52349 0.70149
upperneck 9.48128 -3.75344 2.48196
head 4.65952 -1.68772 0.470256
rclavicle 2.45499e-014 -3.22031e-014
rhumerus -53.0344 -2.97138 -70.2145
rradius 82.3005
rwrist -15.4913
rhand -30.8364 -41.0582
rfingers 7.12502
rthumb -4.12517 -70.998
lclavicle 2.45499e-014 -3.22031e-014
lhumerus -42.8272 -19.5862 87.8041
lradius 63.8722
lwrist 19.8801
lhand 1.73307 8.40819
lfingers 7.12502
lthumb 27.2493 36.4597
rfemur -80.6886 -18.2171 34.6838
rtibia 44.9659
rfoot -2.8619 7.31655
rtoes -15.0438
lfemur -8.58362 16.31 -21.484
ltibia 38.5007
lfoot -10.3764 -20.1918
ltoes 21.2076
304
root 5.24863 16.4889 12.4836 -16.2815 10.9093 4.12629
lowerback 16.647 0.677896 -5.40936
upperback 5.51026 -0.054718 -2.40062
thorax -3.43465 -0.0176735 0.535911
lowerneck -8.20535 -2.47337 0.727008
upperneck 9.20181 -3.67583 2.42474
head 4.56998 -1.65506 0.451416
rclavicle 9.74045e-015 -1.19271e-015
rhumerus -53.0367 -3.38501 -69.7355
rradius 82.4119
rwrist -17.834
rhand -30.5968 -42.1391
rfingers 7.12502
rthumb -3.89375 -72.0833
lclavicle 9.74045e-015 -1.19271e-015
lhumerus -42.6605 -20.4885 87.8512
lradius 64.6341
lwrist 19.8644
lhand 3.19734 8.64046
lfingers 7.12502
lthumb 28.6491 36.464
rfemur -83.4933 -18.5536 36.4464
rtibia 50.3004
rfoot -2.83574 8.5356
rtoes -16.1857
lfemur -7.85484 16.5869 -21.6444
ltibia 38.7349
lfoot -11.3806 -18.837
ltoes 19.6392
305
root 5.2361 16.4745 12.5954 -16.5756 11.2681 4.31861
lowerback 17.194 0.664392 -5.71068
upperback 5.70085 -0.154245 -2.46734
thorax -3.51353 -0.0671681 0.652243
lowerneck -8.25964 -2.43085 0.763089
upperneck 8.97024 -3.61175 2.37334
head 4.49376 -1.62781 0.431942
rclavicle -8.49804e-015 -2.5842e-014
rhumerus -53.0192 -3.86694 -69.3288
rradius 82.5351
rwrist -19.7768
rhand -30.4814 -43.2953
rfingers 7.12502
rthumb -3.78236 -73.2415
lclavicle -8.49804e-015 -2.5842e-014
lhumerus -42.6499 -21.4366 87.9449
lradius 65.4116
lwrist 19.8418
lhand 4.40931 8.73728
lfingers 7.12502
lthumb 29.8064 36.3594
rfemur -86.1098 -18.6049 37.472
rtibia 56.2192
rfoot -2.52369 9.55751
rtoes -16.4951
lfemur -7.3029 17.0351 -21.7999
ltibia 39.0012
lfoot -12.4613 -17.0905
ltoes 17.8755
306
root 5.22089 16.4592 12.7085 -16.7261 11.7813 4.37438
lowerback 17.5569 0.583984 -5.91609
upperback 5.82963 -0.31549 -2.50778
thorax -3.5566 -0.147016 0.7563
lowerneck -8.28105 -2.40953 0.797029
upperneck 8.79776 -3.57891 2.33768
head 4.43338 -1.61459 0.41637
rclavicle 5.46658e-015 5.1684e-015
rhumerus -53.05 -4.42996 -68.987
rradius 82.6844
rwrist -21.1408
rhand -30.514 -44.403
rfingers 7.12502
rthumb -3.81385 -74.3486
lclavicle 5.46658e-015 5.1684e-015
lhumerus -42.7819 -22.436 88.1122
lradius 66.1725
lwrist 19.8289
lhand 5.49969 8.89872
lfingers 7.12502
lthumb 30.8465 36.3293
rfemur -88.6376 -18.5886 38.0538
rtibia 62.4992
rfoot -1.92758 10.7217
rtoes -16.1069
lfemur -6.9821 17.5623 -21.9342
ltibia 39.2915
lfoot -13.5171 -15.0664
ltoes 15.9326
307
root 5.20175 16.4452 12.821 -16.7206 12.5058 4.26159
lowerback 17.7333 0.421664 -6.02004
upperback 5.88459 -0.554669 -2.50507
thorax -3.5757 -0.264818 0.865957
lowerneck -8.26802 -2.41758 0.80783
upperneck 8.69481 -3.58758 2.33543
head 4.39311 -1.62018 0.413699
rclavicle -1.78906e-014 -1.03368e-014
rhumerus -53.1808 -5.06717 -68.6984
rradius 82.8669
rwrist -21.7969
rhand -30.6847 -45.3033
rfingers 7.12502
rthumb -3.97863 -75.2459
lclavicle -1.78906e-014 -1.03368e-014
lhumerus -43.022 -23.4706 88.3782
lradius 66.8659
lwrist 19.8324
lhand 6.4964 9.09362
lfingers 7.12502
lthumb 31.7962 36.3402
rfemur -91.1237 -18.6614 38.3977
rtibia 68.9503
rfoot -1.01979 12.2176
rtoes -15.1759
lfemur -6.91945 18.0396 -22.0233
ltibia 39.6133
lfoot -14.4852 -12.9474
ltoes 13.8701
308
root 5.17752 16.434 12.9313 -16.5763 13.4562 3.94168
lowerback 17.7429 0.172689 -6.01242
upperback 5.86539 -0.875976 -2.43673
thorax -3.58178 -0.422517 0.999276
lowerneck -8.23399 -2.45786 0.786337
upperneck 8.66683 -3.64071 2.36563
head 4.37779 -1.6462 0.424842
rclavicle 1.70458e-014 9.93923e-015
rhumerus -53.4296 -5.75786 -68.4548
rradius 83.0863
rwrist -21.7074
rhand -30.9633 -45.8786
rfingers 7.12502
rthumb -4.24774 -75.816
lclavicle 1.70458e-014 9.93923e-015
lhumerus -43.3199 -24.5038 88.7538
lradius 67.4447
lwrist 19.8274
lhand 7.50198 9.37435
lfingers 7.12502
lthumb 32.7534 36.4263
rfemur -93.5493 -18.9138 38.6745
rtibia 75.4179
rfoot 0.181203 14.0874
rtoes -14.0949
lfemur -7.11668 18.3526 -22.0088
ltibia 39.9845
lfoot -15.3359 -10.9212
ltoes 11.6354
309
root 5.14742 16.4261 13.0383 -16.3191 14.6236 3.42606
lowerback 17.6284 -0.150369 -5.91438
upperback 5.77189 -1.27035 -2.30225
thorax -3.59756 -0.615222 1.16544
lowerneck -8.18586 -2.53261 0.729045
upperneck 8.71021 -3.74198 2.43856
head 4.38795 -1.69408 0.453567
rclavicle 2.51711e-014 4.77083e-015
rhumerus -53.8039 -6.49479 -68.2554
rradius 83.3311
rwrist -20.9186
rhand -31.3568 -46.0996
rfingers 7.12502
rthumb -4.62772 -76.029
lclavicle 2.51711e-014 4.77083e-015
lhumerus -43.6327 -25.5183 89.2428
lradius 67.867
lwrist 19.8016
lhand 8.53765 9.73603
lfingers 7.12502
lthumb 33.7381 36.5776
rfemur -95.8716 -19.3873 38.9763
rtibia 81.784
rfoot 1.70347 16.2612
rtoes -12.8484
lfemur -7.55508 18.4199 -21.8657
ltibia 40.4228
lfoot -16.0778 -9.16308
ltoes 9.1779
310
root 5.11107 16.4219 13.142 -15.9973 15.9502 2.71759
lowerback 17.4265 -0.521413 -5.74334
upperback 5.61891 -1.70904 -2.09115
thorax -3.62683 -0.829105 1.37817
lowerneck -8.13073 -2.63982 0.636925
upperneck 8.80364 -3.88816 2.55018
head 4.41748 -1.76262 0.498559
rclavicle 2.3382e-014 6.36111e-015
rhumerus -54.283 -7.26457 -68.0918
rradius 83.5924
rwrist -19.558
rhand -31.8664 -45.9749
rfingers 7.12502
rthumb -5.11974 -75.893
lclavicle 2.3382e-014 6.36111e-015
lhumerus -43.9171 -26.4921 89.8435
lradius 68.111
lwrist 19.741
lhand 9.60263 10.1641
lfingers 7.12502
lthumb 34.7494 36.7783
rfemur -97.9964 -20.0616 39.3712
rtibia 87.9611
rfoot 3.53091 18.5944
rtoes -11.4487
lfemur -8.19278 18.2312 -21.5344
ltibia 40.9451
lfoot -16.7386 -7.82293
ltoes 6.56927
311
root 5.06891 16.42 13.2437 -15.6463 17.3581 1.86156
lowerback 17.1747 -0.90589 -5.53439
upperback 5.41901 -2.15613 -1.81453
thorax -3.6762 -1.04654 1.63763
lowerneck -8.07659 -2.77619 0.524863
upperneck 8.92281 -4.07481 2.68685
head 4.45877 -1.85011 0.552854
rclavicle 3.25758e-014 6.36111e-015
rhumerus -54.8387 -8.0588 -67.9673
rradius 83.8619
rwrist -17.8157
rhand -32.5013 -45.6431
rfingers 7.12502
rthumb -5.73277 -75.5455
lclavicle 3.25758e-014 6.36111e-015
lhumerus -44.1557 -27.4177 90.5439
lradius 68.1851
lwrist 19.6378
lhand 10.6554 10.6202
lfingers 7.12502
lthumb 35.7477 36.9983
rfemur -99.8346 -20.8778 39.8706
rtibia 93.8905
rfoot 5.61094 20.908
rtoes -10.0389
lfemur -8.98643 17.8518 -21.0038
ltibia 41.5575
lfoot -17.361 -6.9334
ltoes 3.98181
312
root 5.02187 16.4185 13.3447 -15.2871 18.7564 0.919173
lowerback 16.8957 -1.26759 -5.32255
upperback 5.18421 -2.57231 -1.49403
thorax -3.74576 -1.2482 1.93298
lowerneck -8.03133 -2.9387 0.405842
upperneck 9.04991 -4.29796 2.83631
head 4.50661 -1.95492 0.610194
rclavicle -7.75509e-014 7.95139e-015
rhumerus -55.4443 -8.86857 -67.8948
rradius 84.1353
rwrist -15.8986
rhand -33.2824 -45.3265
rfingers 7.12502
rthumb -6.4868 -75.2072
lclavicle -7.75509e-014 7.95139e-015
lhumerus -44.353 -28.2972 91.3254
lradius 68.1193
lwrist 19.4905
lhand 11.6447 11.0651
lfingers 7.12502
lthumb 36.6846 37.2104
rfemur -101.303 -21.7592 40.454
rtibia 99.5309
rfoot 7.85104 23.0297
rtoes -8.78242
lfemur -9.88726 17.4156 -20.2902
ltibia 42.2449
lfoot -17.9878 -6.43899
ltoes 1.53379
313
root 4.97134 16.4165 13.4462 -14.919 20.0626 -0.0377409
lowerback 16.5931 -1.57455 -5.14606
upperback 4.92576 -2.92269 -1.15469
thorax -3.82651 -1.41702 2.25272
lowerneck -7.99237 -3.12151 0.288013
upperneck 9.16284 -4.5491 2.98991
head 4.55203 -2.07337 0.66684
rclavicle -2.57675e-014 1.59028e-015
rhumerus -56.0726 -9.68156 -67.8906
rradius 84.4193
rwrist -14.0158
rhand -34.1939 -45.1392
rfingers 7.12502
rthumb -7.36672 -74.991
lclavicle -2.57675e-014 1.59028e-015
lhumerus -44.535 -29.1369 92.1718
lradius 67.9653
lwrist 19.3033
lhand 12.5453 11.4539
lfingers 7.12502
lthumb 37.5363 37.3778
rfemur -102.341 -22.6409 41.0743
rtibia 104.844
rfoot 10.1774 24.8156
rtoes -7.65523
lfemur -10.8508 17.0918 -19.4447
ltibia 42.9697
lfoot -18.6166 -6.20119
ltoes -0.610161
314
root 4.91872 16.4145 13.5479 -14.5196 21.2184 -0.939225
lowerback 16.2539 -1.81076 -5.03551
upperback 4.65324 -3.1909 -0.822874
thorax -3.90202 -1.54518 2.58285
lowerneck -7.96862 -3.31587 0.182058
upperneck 9.25087 -4.81557 3.12993
head 4.59188 -2.19983 0.71556
rclavicle 5.14604e-014 -5.56597e-015
rhumerus -56.688 -10.4802 -67.981
rradius 84.7219
rwrist -12.3131
rhand -35.156 -45.0742
rfingers 7.12502
rthumb -8.29535 -74.8913
lclavicle 5.14604e-014 -5.56597e-015
lhumerus -44.7341 -29.928 93.0613
lradius 67.7835
lwrist 19.0836
lhand 13.3024 11.7633
lfingers 7.12502
lthumb 38.2514 37.4937
rfemur -102.901 -23.4851 41.6521
rtibia 109.782
rfoot 12.5726 26.139
rtoes -6.4324
lfemur -11.8343 17.0112 -18.5484
ltibia 43.6736
lfoot -19.2105 -6.0303
ltoes -2.32458
315
root 4.86536 16.4143 13.649 -14.0566 22.2071 -1.7233
lowerback 15.8604 -1.97597 -5.00788
upperback 4.37022 -3.37914 -0.528059
thorax -3.96001 -1.63382 2.9018
lowerneck -7.95798 -3.51601 0.0937592
upperneck 9.31091 -5.0894 3.25087
head 4.62394 -2.33055 0.753964
rclavicle 2.67862e-014 1.59028e-015
rhumerus -57.2685 -11.2476 -68.1937
rradius 85.0586
rwrist -10.8922
rhand -36.1036 -45.1583
rfingers 7.12502
rthumb -9.20974 -74.9372
lclavicle 2.67862e-014 1.59028e-015
lhumerus -44.9912 -30.6668 93.9727
lradius 67.6291
lwrist 18.8508
lhand 13.9106 11.9402
lfingers 7.12502
lthumb 38.8252 37.5101
rfemur -102.972 -24.3114 42.1136
rtibia 114.3
rfoot 14.9391 26.9686
rtoes -5.19121
lfemur -12.8084 17.2636 -17.7013
ltibia 44.2975
lfoot -19.7202 -5.66468
ltoes -3.82403
316
root 4.81225 16.4179 13.7484 -13.5007 23.0442 -2.34889
lowerback 15.4002 -2.08262 -5.06542
upperback 4.07679 -3.5039 -0.294283
thorax -3.99432 -1.69099 3.18826
lowerneck -7.95858 -3.71909 0.0267615
upperneck 9.34933 -5.36722 3.35218
head 4.64972 -2.46368 0.781409
rclavicle 6.74874e-014 -7.95139e-015
rhumerus -57.7988 -11.9773 -68.5527
rradius 85.4478
rwrist -9.80146
rhand -36.9686 -45.3902
rfingers 7.12502
rthumb -10.0443 -75.1305
lclavicle 6.74874e-014 -7.95139e-015
lhumerus -45.3403 -31.3484 94.8875
lradius 67.544
lwrist 18.6295
lhand 14.4955 12.1112
lfingers 7.12502
lthumb 39.3765 37.5223
rfemur -102.565 -25.1797 42.3796
rtibia 118.346
rfoot 17.2436 27.3002
rtoes -3.84087
lfemur -13.7539 17.8644 -16.9887
ltibia 44.7974
lfoot -20.0758 -4.90123
ltoes -5.39225
317
root 4.75996 16.427 13.8455 -12.8348 23.7815 -2.79301
lowerback 14.8691 -2.15404 -5.21715
upperback 3.77719 -3.59613 -0.130232
thorax -3.99591 -1.73206 3.4435
lowerneck -7.96308 -3.92158 -0.0279053
upperneck 9.36176 -5.64336 3.43877
head 4.66628 -2.59669 0.801693
rclavicle -7.45443e-017 1.03368e-014
rhumerus -58.254 -12.6589 -69.0679
rradius 85.8967
rwrist -9.05248
rhand -37.7049 -45.7104
rfingers 7.12502
rthumb -10.7546 -75.4151
lclavicle -7.45443e-017 1.03368e-014
lhumerus -45.7836 -31.9516 95.7945
lradius 67.5411
lwrist 18.456
lhand 15.0527 12.241
lfingers 7.12502
lthumb 39.9013 37.4967
rfemur -101.715 -26.188 42.3646
rtibia 121.864
rfoot 19.4583 27.1992
rtoes -2.39095
lfemur -14.6598 18.7319 -16.4709
ltibia 45.1607
lfoot -20.2333 -3.7004
ltoes -6.89229
